<?xml version="1.0" encoding="UTF-8"?>
<svg id="Layer_2" data-name="Layer 2" xmlns="http://www.w3.org/2000/svg" viewBox="0 0 241.29 527.44">
  <defs>
    <style>
      .cls-1 {
        fill: #ea3f45;
      }
    </style>
  </defs>
  <g id="Layer_1-2" data-name="Layer 1">
    <path class="cls-1" d="m89.72,12.66c.06-3.42,1.47-6.68,3.93-9.05S99.42-.06,102.84,0l44.94.8c3.42.06,6.68,1.47,9.06,3.93s3.67,5.77,3.61,9.19l-.31,16.55-70.71-1.27.29-16.54Zm61.85,502.11c-.06,3.42-1.47,6.68-3.93,9.05s-5.77,3.68-9.19,3.61l-44.9-.75c-3.42-.05-6.68-1.46-9.05-3.92s-3.67-5.77-3.59-9.19l.25-16.61,70.73,1.25-.31,16.55Zm48.28-42.43h0c-.09,4.71-2.04,9.2-5.43,12.47s-7.94,5.06-12.65,4.99l-20.74-.4-88.59-1.48-20.78-.37c-4.71-.09-9.19-2.04-12.47-5.43s-5.06-7.94-4.99-12.65l.5-28,165.73,2.95-.58,27.92Zm31.97-100.34h0c3.06,3.13,4.74,7.36,4.67,11.74l-.62,36c-.09,4.3-1.88,8.39-4.97,11.38s-7.25,4.63-11.55,4.57l-203.4-3.6c-4.3-.09-8.39-1.88-11.38-4.97S-.06,419.87,0,415.56l.73-35.88c.06-4.4,1.88-8.6,5.05-11.65s7.42-4.72,11.83-4.63l202.71,3.59c4.35.09,8.49,1.89,11.51,5.02h0Zm-94.22-15.47l-37.17-.67,3.28-184.94,37.14.64-3.24,184.96ZM225.35,95.32c4.3.09,8.39,1.88,11.38,4.97s4.63,7.25,4.57,11.55l-.67,35.98c-.07,4.39-1.89,8.57-5.05,11.62s-7.4,4.72-11.79,4.63l-202.71-3.59c-4.39-.07-8.57-1.89-11.62-5.05s-4.71-7.4-4.63-11.79l.62-36h0c.08-4.31,1.86-8.4,4.96-11.4s7.26-4.63,11.56-4.55l193.56,3.43,9.82.19Zm-18.16-37.3l-.5,28-165.73-2.95.48-27.98h0c.09-4.71,2.04-9.2,5.43-12.47s7.94-5.06,12.65-4.99l20.74.4,109.46,1.94c4.71.09,9.19,2.04,12.46,5.42s5.06,7.94,4.98,12.64l.02-.02Z"/>
  </g>
</svg>