<?xml version="1.0" encoding="UTF-8"?>
<svg id="Layer_2" data-name="Layer 2" xmlns="http://www.w3.org/2000/svg" viewBox="0 0 525 437.5">
  <g id="Layer_1-2" data-name="Layer 1">
    <path d="m463.75,148.75h-35v-17.5c0-2.32-.92-4.55-2.56-6.19s-3.87-2.56-6.19-2.56h-35v-17.5c0-2.32-.92-4.55-2.56-6.19s-3.87-2.56-6.19-2.56h-43.75c-4.83,0-8.75,3.92-8.75,8.75v43.75h-122.5v-43.75c0-2.32-.92-4.55-2.56-6.19s-3.87-2.56-6.19-2.56h-43.75c-4.83,0-8.75,3.92-8.75,8.75v17.5h-35c-4.83,0-8.75,3.92-8.75,8.75v17.5h-35c-4.83,0-8.75,3.92-8.75,8.75v52.5c0,2.32.92,4.55,2.56,6.19s3.87,2.56,6.19,2.56h35v17.5c0,2.32.92,4.55,2.56,6.19s3.87,2.56,6.19,2.56h35v17.5c0,2.32.92,4.55,2.56,6.19s3.87,2.56,6.19,2.56h43.75c2.32,0,4.55-.92,6.19-2.56s2.56-3.87,2.56-6.19v-43.75h122.5v43.75c0,2.32.92,4.55,2.56,6.19s3.87,2.56,6.19,2.56h43.75c2.32,0,4.55-.92,6.19-2.56s2.56-3.87,2.56-6.19v-17.5h35c2.32,0,4.55-.92,6.19-2.56s2.56-3.87,2.56-6.19v-17.5h35c2.32,0,4.55-.92,6.19-2.56s2.56-3.87,2.56-6.19v-52.5c0-2.32-.92-4.55-2.56-6.19s-3.87-2.56-6.19-2.56Zm-393.75,52.5v-35h26.25v35h-26.25Zm43.75,26.25v-87.5h26.25v87.5h-26.25Zm70,26.25h-26.25V113.75h26.25v140Zm17.5-52.5v-35h122.5v35h-122.5Zm166.25,52.5h-26.25V113.75h26.25v140Zm43.75-26.25h-26.25v-87.5h26.25v87.5Zm43.75-26.25h-26.25v-35h26.25v35ZM481.25,0H43.75c-11.6.01-22.72,4.63-30.92,12.83C4.63,21.03.01,32.15,0,43.75v280c.01,11.6,4.63,22.72,12.83,30.92,8.2,8.2,19.32,12.82,30.92,12.83h153.53l58.64,67.01c1.66,1.9,4.06,2.99,6.58,2.99s4.92-1.09,6.58-2.99l58.64-67.01h153.53c11.6-.01,22.72-4.63,30.92-12.83,8.2-8.2,12.82-19.32,12.83-30.92V43.75c-.01-11.6-4.63-22.72-12.83-30.92C503.97,4.63,492.85.01,481.25,0h0Zm26.25,323.75c0,6.96-2.78,13.63-7.7,18.55-4.92,4.92-11.59,7.69-18.55,7.7h-157.5c-2.52,0-4.93,1.09-6.59,2.99l-54.66,62.47-54.67-62.48h0c-1.66-1.9-4.06-2.99-6.58-2.98H43.75c-6.96,0-13.63-2.78-18.56-7.7-4.92-4.92-7.69-11.59-7.7-18.55V43.75c0-6.96,2.78-13.63,7.7-18.56,4.92-4.92,11.59-7.69,18.56-7.7h437.5c6.96,0,13.63,2.78,18.55,7.7,4.92,4.92,7.69,11.59,7.7,18.56v280Z"/>
  </g>
</svg>